#File written by RizomUV 2022.1.57.gfabcfb8. Compilation :Sep 28 2022,23:52:22
mtllib box_low.mtl
#begin vertices
v -50 0 50
v -50 0 -50
v 50 0 -50
v 50 0 50
v -50 100 50
v 50 100 50
v 50 100 -50
v -50 100 -50
v -45 5 46
v 45 5 46
v 45 95 46
v -45 95 46
v 46 5 45
v 46 5 -45
v 46 95 -45
v 46 95 45
v 45 5 -46
v -45 5 -46
v -45 95 -46
v 45 95 -46
v -46 5 -45
v -46 5 45
v -46 95 45
v -46 95 -45
v 50 5 -45
v 50 5 45
v 50 95 -45
v 50 95 45
v -50 5 45
v -50 5 -45
v -50 95 45
v -50 95 -45
v 45 5 50
v -45 5 50
v 45 95 50
v -45 95 50
v -45 5 -50
v 45 5 -50
v -45 95 -50
v 45 95 -50
v 49.201 92.6533 45.613
v 42.13 99.7244 45.613
v 42.13 99.7244 48.613
v 49.201 92.6533 48.613
v -42.4527 0.9996 45.613
v -42.4527 0.9996 48.613
v -49.5238 8.0707 48.613
v -49.5238 8.0707 45.613
v -46.0397 8.0707 -49.5911
v -46.0397 0.9996 -42.52
v -49.0397 0.9996 -42.52
v -49.0397 8.0707 -49.5911
v -46.0396 99.7244 42.0626
v -49.0396 99.7244 42.0626
v -49.0396 92.6533 49.1337
v -46.0396 92.6533 49.1337
v -49.3624 92.6533 -45.7603
v -42.2913 99.7244 -45.7603
v -42.2913 99.7244 -48.7603
v -49.3624 92.6533 -48.7603
v 42.2913 0.9996 -45.7603
v 42.2913 0.9996 -48.7603
v 49.3624 8.0707 -48.7603
v 49.3624 8.0707 -45.7603
v 45.8783 8.0707 49.4438
v 45.8783 0.9996 42.3727
v 48.8783 0.9996 42.3727
v 48.8783 8.0707 49.4438
v 45.8783 99.7244 -42.2099
v 48.8783 99.7244 -42.2099
v 48.8783 92.6533 -49.281
v 45.8783 92.6533 -49.281
#end vertices

#begin 184 textures vertices 
vt 0.3813106 0.008550106 0
vt 0.3956548 0.00390625 0
vt 0.6743534 0.008220393 0
vt 0.6698665 0.2761868 0
vt 0.1016996 0.8325339 0
vt 0.3968137 0.553893 0
vt 0.3804038 0.2845531 0
vt 0.09778784 0.2718671 0
vt 0.6845478 0.5056463 0
vt 0.9354091 0.5056463 0
vt 0.9354091 0.7468472 0
vt 0.6845478 0.7468472 0
vt 0.6845478 0.2563998 0
vt 0.9354091 0.2563998 0
vt 0.9354091 0.4976007 0
vt 0.6845478 0.4976007 0
vt 0.6806361 0.9960937 0
vt 0.6806361 0.7548928 0
vt 0.9314974 0.7548928 0
vt 0.9314974 0.9960938 0
vt 0.935386 0.2483558 0
vt 0.6845478 0.2450851 0
vt 0.6879496 0.00390625 0
vt 0.01505539 0.9687605 0
vt 0.6599592 0.2977129 0
vt 0.4091027 0.2992135 0
vt 0.6615199 0.5389092 0
vt 0.4106634 0.5404098 0
vt 0.3671345 0.02171596 0
vt 0.1163108 0.01753649 0
vt 0.3627876 0.2628807 0
vt 0.111964 0.2587013 0
vt 0.6559659 0.575338 0
vt 0.4051046 0.575338 0
vt 0.6559659 0.8165389 0
vt 0.4051046 0.8165389 0
vt 0.1195521 0.5428927 0
vt 0.3703859 0.5393245 0
vt 0.115841 0.3017181 0
vt 0.3666748 0.2981499 0
vt 0.9827535 0.3676917 0
vt 0.9548826 0.367331 0
vt 0.9549952 0.3592916 0
vt 0.9828661 0.3596524 0
vt 0.9960938 0.01241483 0
vt 0.9877325 0.01230654 0
vt 0.9598614 0.01194555 0
vt 0.959974 0.00390625 0
vt 0.9877325 0.01230654 0
vt 0.9598614 0.01194555 0
vt 0.9515001 0.01183726 0
vt 0.9878451 0.004267234 0
vt 0.9828661 0.3596524 0
vt 0.9912274 0.3597607 0
vt 0.9548826 0.367331 0
vt 0.9549952 0.3592916 0
vt 0.9827535 0.3676917 0
vt 0.9548826 0.367331 0
vt 0.9549952 0.3592916 0
vt 0.9828661 0.3596524 0
vt 0.9878451 0.004267234 0
vt 0.9877325 0.01230654 0
vt 0.9598614 0.01194555 0
vt 0.959974 0.00390625 0
vt 0.959974 0.00390625 0
vt 0.9878451 0.004267234 0
vt 0.9877325 0.01230654 0
vt 0.9598614 0.01194555 0
vt 0.9548826 0.367331 0
vt 0.9549952 0.3592916 0
vt 0.9828661 0.3596524 0
vt 0.9827535 0.3676917 0
vt 0.03227942 0.7275036 0
vt 0.03128838 0.9687027 0
vt 0.03327047 0.4863045 0
vt 0.03426151 0.2451054 0
vt 0.04243769 0.968745 0
vt 0.04640185 0.0039486 0
vt 0.04342873 0.7275459 0
vt 0.04541081 0.2451477 0
vt 0.03525255 0.00390625 0
vt 0.04441977 0.4863468 0
vt 0.6699026 0.5619379 0
vt 0.3911678 0.5619379 0
vt 0.3911678 0.829939 0
vt 0.6699026 0.829939 0
vt 0.6738089 0.2842297 0
vt 0.3950796 0.2858971 0
vt 0.1018106 0.5645328 0
vt 0.675543 0.5522257 0
vt 0.08063508 0.9687331 0
vt 0.07883065 0.2451323 0
vt 0.07943213 0.4863325 0
vt 0.0800336 0.7275328 0
vt 0.09058149 0.4863068 0
vt 0.08998001 0.2451065 0
vt 0.07822918 0.003931953 0
vt 0.09118296 0.7275071 0
vt 0.09178443 0.9687074 0
vt 0.08937854 0.00390625 0
vt 0.105823 0.5564895 0
vt 0.3845273 0.5525249 0
vt 0.3805453 0.5646395 0
vt 0.1016996 0.2885178 0
vt 0.05867169 0.9687447 0
vt 0.05573701 0.2451472 0
vt 0.05671523 0.4863464 0
vt 0.05769346 0.7275455 0
vt 0.06786454 0.4863046 0
vt 0.06688631 0.2451054 0
vt 0.06884277 0.7275037 0
vt 0.06590809 0.00390625 0
vt 0.06982099 0.9687029 0
vt 0.05475878 0.003948053 0
vt 0.007279157 0.4862973 0
vt 0.005592704 0.7274929 0
vt 0.01065206 0.00390625 0
vt 0.00390625 0.9686884 0
vt 0.008965611 0.2451018 0
vt 0.3911678 0.2718726 0
vt 0.1026177 0.00390625 0
vt 0.3804343 0.8326406 0
vt 0.3764808 0.276511 0
vt 0.9515001 0.01183726 0
vt 0.977484 0.3757813 0
vt 0.9960938 0.01241483 0
vt 0.9496113 0.3755605 0
vt 0.9912274 0.3597607 0
vt 0.9466339 0.7229261 0
vt 0.9466339 0.3591834 0
vt 0.9745064 0.7231472 0
vt 0.9912274 0.3597607 0
vt 0.9466339 0.7229261 0
vt 0.9466339 0.3591834 0
vt 0.9745064 0.7231472 0
vt 0.977484 0.3757813 0
vt 0.9496113 0.3755605 0
vt 0.9515001 0.01183726 0
vt 0.9878451 0.004267234 0
vt 0.9877325 0.01230654 0
vt 0.9466339 0.3591834 0
vt 0.9598614 0.01194555 0
vt 0.9745064 0.7231472 0
vt 0.9549952 0.3592916 0
vt 0.9549952 0.3592916 0
vt 0.9828661 0.3596524 0
vt 0.9828661 0.3596524 0
vt 0.9912274 0.3597607 0
vt 0.9466339 0.7229261 0
vt 0.9466339 0.3591834 0
vt 0.9745064 0.7231472 0
vt 0.9515001 0.01183726 0
vt 0.977484 0.3757813 0
vt 0.9960938 0.01241483 0
vt 0.9496113 0.3755605 0
vt 0.9387878 0.007176997 0
vt 0.0218012 0.003978317 0
vt 0.01674184 0.7275649 0
vt 0.0184283 0.4863694 0
vt 0.02011475 0.2451739 0
vt 0.9549952 0.3592916 0
vt 0.9549952 0.3592916 0
vt 0.9827535 0.3676917 0
vt 0.9877325 0.01230654 0
vt 0.9828661 0.3596524 0
vt 0.9828661 0.3596524 0
vt 0.9466339 0.7229261 0
vt 0.9598614 0.01194555 0
vt 0.9496113 0.3755605 0
vt 0.9877325 0.01230654 0
vt 0.9549952 0.3592916 0
vt 0.9549952 0.3592916 0
vt 0.9598614 0.01194555 0
vt 0.9960938 0.01241483 0
vt 0.9828661 0.3596524 0
vt 0.9828661 0.3596524 0
vt 0.959974 0.00390625 0
vt 0.9877325 0.01230654 0
vt 0.977484 0.3757813 0
vt 0.9598614 0.01194555 0
vt 0.9549952 0.3592916 0
vt 0.9549952 0.3592916 0
vt 0.9828661 0.3596524 0
vt 0.9828661 0.3596524 0
#end 184 textures vertices 

#begin 56 normals 
vn -0.5774 -0.5774 0.5774
vn -0.5774 -0.5774 -0.5774
vn 0.5774 -0.5774 -0.5774
vn 0.5774 -0.5774 0.5774
vn -0.5774 0.5774 0.5774
vn 0.5774 0.5774 0.5774
vn 0.5774 0.5774 -0.5774
vn -0.5774 0.5774 -0.5774
vn 0.9045 0.3015 0.3015
vn 0.9045 0.3015 -0.3015
vn 0.9045 -0.3015 0.3015
vn 0.9045 -0.3015 -0.3015
vn -0.9045 0.3015 -0.3015
vn -0.9045 0.3015 0.3015
vn -0.9045 -0.3015 -0.3015
vn -0.9045 -0.3015 0.3015
vn -0.3015 0.3015 0.9045
vn 0.3015 0.3015 0.9045
vn -0.3015 -0.3015 0.9045
vn 0.3015 -0.3015 0.9045
vn 0.3015 0.3015 -0.9045
vn -0.3015 0.3015 -0.9045
vn 0.3015 -0.3015 -0.9045
vn -0.3015 -0.3015 -0.9045
vn 0.8165 -0 -0.5774
vn 0 0.8165 -0.5774
vn 0 0.8165 0.5774
vn 0.8165 -0 0.5774
vn -0 -0.8166 -0.5773
vn -0 -0.8166 0.5773
vn -0.8164 0 0.5774
vn -0.8164 0 -0.5774
vn 0.5773 0.0002 -0.8166
vn 0.5774 -0.8165 0.0001
vn -0.5774 -0.8165 0.0001
vn -0.5774 0 -0.8165
vn 0.5773 0.8165 -0.0001
vn -0.5774 0.8165 0.0001
vn -0.5773 -0 0.8165
vn 0.5774 -0 0.8165
vn -0.8165 -0 0.5774
vn -0 0.8165 0.5774
vn -0 0.8165 -0.5774
vn -0.8165 -0 -0.5774
vn 0 -0.8166 0.5773
vn 0 -0.8166 -0.5773
vn 0.8164 0 -0.5774
vn 0.8164 0 0.5774
vn -0.5774 0 0.8165
vn -0.5774 -0.8165 -0.0001
vn 0.5774 -0.8165 -0.0001
vn 0.5774 0 0.8165
vn -0.5774 0.8165 -0
vn 0.5774 0.8165 -0
vn 0.5774 -0.0001 -0.8165
vn -0.5774 -0.0001 -0.8165
#end 56 normals 

#begin 62 faces
o box
usemtl wire_027177027
g box
s 2
f 1/120/1 2/2/2 3/3/3 4/4/4 
s 4
f 5/5/5 6/89/6 7/103/7 8/122/8 
s 8
f 9/9/6 10/10/5 11/11/1 12/12/4 
s 16
f 13/13/7 14/14/6 15/15/4 16/16/3 
s 32
f 17/17/8 18/18/7 19/19/3 20/20/2 
s 64
f 21/21/5 22/22/8 23/23/2 24/156/1 
s off
f 4/88/4 3/87/3 25/25/9 26/26/10 
f 3/87/3 7/90/7 27/27/11 25/25/9 
f 7/90/7 6/6/6 28/28/12 27/27/11 
f 6/6/6 4/88/4 26/26/10 28/28/12 
f 2/121/2 1/1/1 29/29/13 30/30/14 
f 1/1/1 5/123/5 31/31/15 29/29/13 
f 5/123/5 8/8/8 32/32/16 31/31/15 
f 8/8/8 2/121/2 30/30/14 32/32/16 
f 1/84/1 4/83/4 33/33/17 34/34/18 
f 4/83/4 6/86/6 35/35/19 33/33/17 
f 6/86/6 5/85/5 36/36/20 35/35/19 
f 5/85/5 1/84/1 34/34/18 36/36/20 
f 3/102/3 2/101/2 37/37/21 38/38/22 
f 2/101/2 8/104/8 39/39/23 37/37/21 
f 8/104/8 7/7/7 40/40/24 39/39/23 
f 7/7/7 3/102/3 38/38/22 40/40/24 
f 34/80/18 33/82/17 10/75/5 9/76/6 
f 33/82/17 35/79/19 11/73/1 10/75/5 
f 35/79/19 36/77/20 12/74/4 11/73/1 
f 36/78/20 34/80/18 9/76/6 12/81/4 
f 26/96/10 25/95/9 14/93/6 13/92/7 
f 25/95/9 27/98/11 15/94/4 14/93/6 
f 27/98/11 28/99/12 16/91/3 15/94/4 
f 28/100/12 26/96/10 13/92/7 16/97/3 
f 38/110/22 37/109/21 18/107/7 17/106/8 
f 37/109/21 39/111/23 19/108/3 18/107/7 
f 39/111/23 40/113/24 20/105/2 19/108/3 
f 40/112/24 38/110/22 17/106/8 20/114/2 
f 30/116/14 29/115/13 22/159/8 21/158/5 
f 29/115/13 31/119/15 23/160/2 22/159/8 
f 31/119/15 32/117/16 24/157/1 23/160/2 
f 32/118/16 30/116/14 21/158/5 24/24/1 
s 2
f 41/41/25 42/42/26 43/182/27 44/44/28 
s 4
f 45/139/29 46/178/30 47/47/31 48/48/32 
s 8
f 41/132/25 44/183/28 46/46/30 45/45/29 
s 16
f 44/184/28 43/181/27 47/47/31 46/178/30 
s 32
f 43/43/27 42/134/26 48/138/32 47/180/31 
s 64
f 42/135/26 41/133/25 45/137/29 48/136/32 
s 2
f 49/49/33 50/50/34 51/177/35 52/52/36 
s 4
f 53/53/37 54/163/38 55/55/39 56/56/40 
s 8
f 49/140/33 52/174/36 54/54/38 53/146/37 
s 16
f 52/169/36 51/179/35 55/143/39 54/167/38 
s 32
f 51/51/35 50/142/34 56/144/40 55/141/39 
s 64
f 50/50/34 49/49/33 53/147/37 56/145/40 
s 2
f 57/57/41 58/58/42 59/172/43 60/60/44 
s 4
f 61/61/45 62/164/46 63/63/47 64/64/48 
s 8
f 57/148/41 60/175/44 62/62/46 61/154/45 
s 16
f 60/176/44 59/171/43 63/63/47 62/164/46 
s 32
f 59/59/43 58/150/42 64/152/48 63/168/47 
s 64
f 58/151/42 57/149/41 61/155/45 64/153/48 
s 2
f 65/65/49 66/66/50 67/170/51 68/68/52 
s 4
f 69/69/53 70/162/54 71/71/55 72/72/56 
s 8
f 65/124/49 68/173/52 70/70/54 69/130/53 
s 16
f 68/68/52 67/170/51 71/165/55 70/161/54 
s 32
f 67/67/51 66/126/50 72/128/56 71/166/55 
s 64
f 66/127/50 65/125/49 69/131/53 72/129/56 
#end 62 faces

#ZOMPROPERTIES_04{
#ZOMPROPERTIES_04 table {Mesh table {SymPlane table {Point vector3d 0 0 0 Normal vector3d 1 0 0 Threshold double 0.01 
#ZOMPROPERTIES_04 Enabled bool false EdgeID int -1 SymEdgeID int -1 UPos double 0.5 LocalMode bool false } RootGroup C
#ZOMPROPERTIES_04 SubMeshGroup {Children table {Tile_0_0 CSubMeshGroup {Children table {G1 CSubMeshGroup {Children tab
#ZOMPROPERTIES_04 le {} BBoxUV box3d 0.946634 0.977484 0.37556 0.723147 0 0 BBox3D box3d 0 0 0 0 0 0 Area3D double 0 A
#ZOMPROPERTIES_04 reaUV double 0.0387305 IsRoot bool false Properties table {Selected bool false Box box3d 0.946634 0.
#ZOMPROPERTIES_04 977484 0.37556 0.723147 0 0 U int 0 V int 0 NU int 0 NV int 0 Tiling vector3d 1 1 1 TileRatioMode st
#ZOMPROPERTIES_04 ring "1:1" Overflow string "Off" Pack table {BoxFrameEdit bool false Behavior string "Free" } } IsTi
#ZOMPROPERTIES_04 le bool false PolyIDs ints { 43 47 55 61 } } G0 CSubMeshGroup {Children table {} BBoxUV box3d 0.9466
#ZOMPROPERTIES_04 34 0.996094 0.00390625 0.367692 0 0 BBox3D box3d 0 0 0 0 0 0 Area3D double 0 AreaUV double 0.0637616
#ZOMPROPERTIES_04  IsRoot bool false Properties table {Selected bool false Box box3d 0.946634 0.996094 0.00390625 0.36
#ZOMPROPERTIES_04 7692 0 0 U int 0 V int 0 NU int 0 NV int 0 Tiling vector3d 1 1 1 TileRatioMode string "1:1" Overflow
#ZOMPROPERTIES_04  string "Off" Pack table {BoxFrameEdit bool false Behavior string "Free" } } IsTile bool false PolyI
#ZOMPROPERTIES_04 Ds ints { 38 39 41 48 40 42 44 49 45 46 50 51 53 52 54 56 59 57 58 60 } } } BBoxUV box3d 0 0 0 0 0 0
#ZOMPROPERTIES_04  BBox3D box3d 0 0 0 0 0 0 Area3D double 0 AreaUV double 0.593727 IsRoot bool false Properties table 
#ZOMPROPERTIES_04 {Selected bool false Box box3d 0 1 0 1 0 1 U int 0 V int 0 NU int 0 NV int 0 Tiling vector3d 1 1 1 T
#ZOMPROPERTIES_04 ileRatioMode string "1:1" Overflow string "Off" Pack table {BoxFrameEdit bool false Behavior string 
#ZOMPROPERTIES_04 "Free" } } IsTile bool true PolyIDs ints { 30 31 32 33 22 23 24 25 26 27 28 29 34 35 36 37 14 15 16 
#ZOMPROPERTIES_04 17 10 11 12 13 6 7 8 9 18 19 20 21 2 4 3 5 0 1 } } } BBoxUV box3d 0 0 0 0 0 0 BBox3D box3d 0 0 0 0 0
#ZOMPROPERTIES_04  0 Area3D double 0 AreaUV double 0 IsRoot bool true Properties table {Selected bool false Box box3d 
#ZOMPROPERTIES_04 0 1 0 1 0 1 U int 0 V int 0 NU int 1 NV int 1 Tiling vector3d 1 1 1 TileRatioMode string "1:1" Overf
#ZOMPROPERTIES_04 low string "Off" Pack table {Rotate table {Mode int 0 Min double 0 Max double 90 Step double 0 } Pad
#ZOMPROPERTIES_04 dingSize double 0.0078125 MarginSize double 0.00390625 Resolution int 256 MapResolution int 2048 Sca
#ZOMPROPERTIES_04 ling table {TexelDensity double 1024 Mode int 2 } LayoutScalingMode int 2 MaxMutations int 1 } } IsT
#ZOMPROPERTIES_04 ile bool false PolyIDs ints { } } Maps table {Density table {PrimType string "Polygon" Size int 1 De
#ZOMPROPERTIES_04 faultValue double 1 ScaleType string "Log" MergeMode string "Average" MinValue double 0.1 MaxValue d
#ZOMPROPERTIES_04 ouble 4 Data doubles { r 62 1 } } Pin table {PrimType string "Vertex" Size int 1 DefaultValue double
#ZOMPROPERTIES_04  0 ScaleType string "Normalized" MergeMode string "Max" MinValue double 0 MaxValue double 1 Data dou
#ZOMPROPERTIES_04 bles { r 184 0 } } Protect table {PrimType string "Vertex" Size int 1 DefaultValue double 0 ScaleTyp
#ZOMPROPERTIES_04 e string "Normalized" MergeMode string "Average" MinValue double -1 MaxValue double 1 Data doubles {
#ZOMPROPERTIES_04  r 184 0 } } } } }
#ZOMPROPERTIES_04}


#ZOMSCENE_01{
#ZOMSCENE_01 CScene {Settings table {AxisSystem table {UpVector string "y" } Unit string "cm" TexelDensityDisplay
#ZOMSCENE_01 Unit string "tx/cm" } }
#ZOMSCENE_01}

#begin 0 fatal error vertex (that RizomUV cannot handle)
#end 0 fatal error vertex (that RizomUV cannot handle)

#begin 0 error vertex
#end 0 error vertex
